<svg width="723" height="279" viewBox="0 0 723 279" fill="none" xmlns="http://www.w3.org/2000/svg">
<style>
@media (prefers-color-scheme: dark) {
  .f {
    fill: #ffffff;
  }
}
</style>
<path d="M695.6 226.7H140.6V174.3H722.5L703.5 221.3C702.2 224.7 699.1 226.7 695.6 226.7Z" fill="#002352"/>
<path d="M407.2 218L420.5 183.5H434.2C436 183.5 437.6 183.7 438.7 184.1C439.9 184.6 440.7 185.2 441.2 185.9C441.7 186.7 442 187.6 442 188.7C442 189.8 441.7 190.9 441.3 192.1L440.9 192.9C440.4 194.4 439.4 195.7 438.4 196.9C437.3 198.1 435.9 199.1 434.3 199.7C435.6 200.3 436.4 201.3 436.7 202.7C437 204.1 436.8 205.7 436.1 207.5L435.8 208.4C434.6 211.4 432.8 213.8 430.2 215.4C427.6 217 424.3 217.9 420.1 217.9L407.2 218ZM416.3 212.5H422.5C424 212.5 425.4 212.1 426.5 211.5C427.6 210.9 428.4 209.8 429 208.3L429.4 207.5C430.6 204.5 429.5 203 426.1 203H420.1L416.3 212.5ZM422.1 197.5H428.2C429.5 197.5 430.7 197.1 431.6 196.6C432.6 196 433.3 195.1 433.8 193.8L434.1 193.2C435.1 190.6 434.1 189.3 431.1 189.3H425.3L422.1 197.5Z" fill="white"/>
<path d="M458.4 183.6L447.4 212.1H462.2L459 218.1H437.7L451 183.6H458.4Z" fill="white"/>
<path d="M497.3 202.9C496.4 205.3 495.3 207.3 494.1 209.3C492.9 211.3 491.5 212.9 489.8 214.3C488.2 215.7 486.3 216.8 484.2 217.6C482 218.4 479.6 218.8 476.8 218.8C473.9 218.8 471.7 218.4 470.2 217.6C468.7 216.8 467.7 215.7 467.1 214.3C466.6 212.9 466.5 211.2 466.8 209.3C467.2 207.3 467.8 205.2 468.6 202.9L470.1 198.8C471 196.4 472.1 194.3 473.3 192.4C474.5 190.4 475.9 188.8 477.6 187.4C479.3 186 481 184.9 483.2 184.1C485.3 183.3 487.7 182.9 490.6 182.9C493.5 182.9 495.8 183.3 497.3 184.2C498.8 185 499.8 186.2 500.4 187.6C500.9 189.1 500.9 190.7 500.6 192.6C500.3 194.5 499.6 196.7 498.8 198.9L497.3 202.9ZM476.2 203C475.4 205.1 474.9 206.7 474.7 208C474.5 209.3 474.5 210.3 474.8 211C475.1 211.7 475.6 212.2 476.3 212.5C477 212.8 477.9 212.9 479.1 212.9C480.2 212.9 481.2 212.8 482.1 212.5C483 212.2 483.9 211.8 484.8 211C485.6 210.3 486.5 209.3 487.3 208C488.1 206.7 488.8 205.1 489.7 203L491.3 198.7C492.1 196.6 492.6 195 492.8 193.7C493 192.4 493 191.4 492.7 190.7C492.4 190 491.9 189.5 491.2 189.2C490.5 188.9 489.6 188.8 488.4 188.8C487.3 188.8 486.3 188.9 485.4 189.2C484.5 189.5 483.6 189.9 482.7 190.7C481.9 191.4 481 192.4 480.2 193.7C479.4 195 478.7 196.6 477.8 198.7L476.2 203Z" fill="white"/>
<path d="M511.5 218.5C508.7 218.5 506.5 218.1 505 217.5C503.5 216.9 502.3 215.9 501.6 214.6C501 213.3 500.8 211.7 501.1 209.7C501.4 207.7 502 205.4 503.1 202.8L504.5 199.3C505.4 196.9 506.5 194.9 507.7 192.9C509 190.9 510.4 189.3 512.1 187.7C513.8 186.2 515.8 185.1 518.1 184.3C520.4 183.5 522.9 183 525.9 183C527.5 183 529 183.1 530.3 183.4C531.6 183.7 532.7 183.9 533.4 184.2L530 189.8C529.4 189.5 528.5 189.3 527.6 189.2C526.7 189.1 525.6 188.9 524.4 188.9C522.9 188.9 521.5 189.1 520.3 189.4C519.1 189.8 518 190.2 517 191C516 191.8 515.1 192.8 514.3 194.2C513.5 195.5 512.7 197.2 511.8 199.2L510.5 202.4C509.7 204.5 509.2 206.1 509 207.4C508.7 208.7 508.8 209.7 509.2 210.4C509.6 211.1 510.3 211.7 511.3 211.9C512.3 212.2 513.7 212.3 515.4 212.3C516.3 212.3 517.4 212.2 518.7 212.2C520 212.1 521.2 211.9 522.5 211.7L519.1 217.5C517.7 217.8 516.5 218 515.1 218.1C513.8 218.5 512.5 218.5 511.5 218.5Z" fill="white"/>
<path d="M538.6 203L532.8 218.1H525.7L539 183.6H546L540.6 197.8L557.9 183.6H566.1L545.8 200L553.6 218H544.7L538.6 203Z" fill="white"/>
<path d="M569.1 218.5C566.3 218.5 564.1 218.1 562.6 217.5C561 216.9 559.9 215.9 559.2 214.6C558.6 213.3 558.4 211.7 558.7 209.7C559 207.7 559.6 205.4 560.7 202.8L562.1 199.3C563 196.9 564.1 194.9 565.3 192.9C566.6 190.9 568 189.3 569.7 187.7C571.4 186.2 573.4 185.1 575.7 184.3C578 183.5 580.5 183 583.5 183C585.1 183 586.6 183.1 587.9 183.4C589.2 183.7 590.3 183.9 591 184.2L587.6 189.8C587 189.5 586.1 189.3 585.2 189.2C584.3 189 583.2 188.9 582 188.9C580.5 188.9 579.1 189.1 577.9 189.4C576.7 189.8 575.6 190.2 574.6 191C573.6 191.8 572.7 192.8 571.9 194.2C571.1 195.5 570.3 197.2 569.4 199.2L568.1 202.4C567.3 204.5 566.8 206.1 566.6 207.4C566.4 208.7 566.4 209.7 566.8 210.4C567.2 211.1 567.9 211.7 568.9 211.9C569.9 212.2 571.3 212.3 573 212.3C573.9 212.3 575 212.2 576.3 212.2C577.6 212.1 578.8 211.9 580.1 211.7L576.7 217.5C575.3 217.8 574.1 218 572.7 218.1C571.4 218.5 570.2 218.5 569.1 218.5Z" fill="white"/>
<path d="M623.5 183.6L610.2 218.1H602.8L608.6 203H596.4L590.6 218.1H583.3L596.6 183.6H604L598.9 196.9H611L616.1 183.6H623.5Z" fill="white"/>
<path d="M638.9 209.5H627.7L621.8 218H614.6L639.4 183.5H647.1L645.6 218H638.3L638.9 209.5ZM631.5 203.8H639.6L640.7 190.6L631.5 203.8Z" fill="white"/>
<path d="M657.7 218H650.3L663.6 183.5H671L657.7 218Z" fill="white"/>
<path d="M684.6 183.6L689.3 206.4L698.1 183.6H705L691.7 218.1H685.2L680.5 195.3L671.7 218.1H664.8L678.1 183.6H684.6Z" fill="white"/>
<path d="M332.2 69.6H357.7C363.8 69.6 368.6 70.4 372 72C375.4 73.5 377.9 75.7 379.3 78.5C380.7 81.3 381 84.7 380.6 88.6C380.1 92.5 379 96.9 377.2 101.6L374.9 107.4C373.1 112.1 370.9 116.4 368.4 120.4C365.9 124.3 362.9 127.8 359.3 130.6C355.7 133.4 351.7 135.7 347 137.2C342.3 138.7 336.9 139.6 330.8 139.6H305.3L332.2 69.6ZM328.9 124.5H335C337.5 124.5 339.8 124.1 341.9 123.6C344 123 345.9 122 347.6 120.5C349.3 119.1 351 117.2 352.4 114.9C353.9 112.5 355.2 109.7 356.6 106.4L358.1 102.6C359.5 99 360.4 96.1 360.6 93.7C361 91.3 360.7 89.5 360.1 88.2C359.5 86.8 358.3 85.8 356.7 85.4C355.1 84.9 353 84.6 350.5 84.6H344.4L328.9 124.5Z" fill="#032351" class="f"/>
<path d="M393.7 88.1H411.6L391.7 139.5H373.8L393.7 88.1ZM404.4 83.5C400.7 83.5 398.4 82.7 397.5 81C396.6 79.4 396.7 77.3 397.7 74.6C398.8 71.9 400.3 69.8 402.4 68.2C404.5 66.6 407.5 65.7 411.2 65.7C414.9 65.7 417.2 66.5 418.1 68.2C419 69.8 418.9 71.9 417.8 74.6C416.8 77.2 415.3 79.3 413.1 81C411 82.8 408.1 83.5 404.4 83.5Z" fill="#032351" class="f"/>
<path d="M436.2 134.5C434.5 135.7 432.4 136.8 430 137.7C427.6 138.6 425 139.2 422.2 139.2C415.8 139.2 411.7 137.3 409.8 133.5C407.9 129.7 408.7 123.5 412 114.9L412.9 112.4C414.6 107.9 416.8 103.9 419.3 100.7C421.8 97.4 424.7 94.8 427.8 92.8C431 90.8 434.3 89.3 438 88.4C441.6 87.5 445.5 86.9 449.6 86.9C454.5 86.9 458.6 87.4 461.8 88.4C465 89.5 467.8 90.8 470.1 92.4L453.8 134.7C452 139.3 449.7 143.4 447.1 147C444.4 150.5 441.4 153.4 438.1 155.8C434.8 158.2 431.3 159.9 427.6 161.1C423.9 162.3 420.1 162.8 416.3 162.8C412.2 162.8 408.5 162.5 405.1 162.1C401.7 161.7 398.6 160.7 395.8 159.4L403.6 146.3C405.2 146.9 407.3 147.6 410 148C412.6 148.5 415.4 148.7 418.3 148.7C422.4 148.7 425.9 147.7 428.8 145.8C431.7 143.9 434.1 140.5 435.9 135.9L436.2 134.5ZM429.9 115.2C428.4 119.3 427.7 122 428.2 123.5C428.7 125 430 125.8 432.3 125.8C434.7 125.8 436.7 125.2 438.5 123.8C440.2 122.4 441.8 120 443.1 116.4L449 101.2C448 100.6 446.3 100.2 443.9 100.2C441.6 100.2 439.4 101 437.2 102.7C435 104.4 433.1 107.1 431.7 111L429.9 115.2Z" fill="#032351" class="f"/>
<path d="M484 88.1H501.9L482 139.5H464.1L484 88.1ZM494.7 83.5C491 83.5 488.7 82.7 487.8 81C486.9 79.4 487 77.3 488 74.6C489.1 71.9 490.6 69.8 492.7 68.2C494.8 66.6 497.8 65.7 501.5 65.7C505.2 65.7 507.5 66.5 508.4 68.2C509.3 69.8 509.2 71.9 508.1 74.6C507.1 77.2 505.6 79.3 503.4 81C501.3 82.8 498.4 83.5 494.7 83.5Z" fill="#032351" class="f"/>
<path d="M494.6 139.4L521.6 69.6H550.7C554.5 69.6 557.6 70.1 560.1 70.9C562.6 71.8 564.4 73.1 565.5 74.7C566.6 76.3 567.2 78.2 567.3 80.5C567.3 82.7 566.8 85.2 565.8 87.9L565.3 89.3C564.2 92.2 562.5 94.9 560.4 97.3C558.2 99.7 555.7 101.6 552.6 103C554.8 104.4 556.2 106.4 556.8 109.2C557.3 111.9 557 115 555.7 118.5L555.2 119.9C552.8 126.1 548.9 130.9 543.5 134.4C538.1 137.9 530.9 139.7 521.9 139.7L494.6 139.4ZM516.5 125.9H527.5C529.7 125.9 531.8 125.4 533.7 124.4C535.6 123.3 537.1 121.6 538 119.2L538.5 117.8C539.6 115.1 539.6 113.2 538.6 112C537.6 110.8 535.9 110.3 533.2 110.3H522.6L516.5 125.9ZM527.9 96.6H538.5C540.5 96.6 542.4 96.1 544 95.1C545.6 94.1 546.9 92.6 547.7 90.5L548.2 89.4C549.1 87.1 549 85.5 548 84.6C547 83.7 545.5 83.1 543.4 83.1H533.2L527.9 96.6Z" fill="#032351" class="f"/>
<path d="M628.4 88.1L588.6 141.1C586.1 144.5 583.7 147.5 581.4 150.1C579 152.8 576.6 155.1 574 157C571.5 158.9 568.7 160.4 565.8 161.4C562.9 162.4 559.5 162.9 555.8 162.9C554.7 162.9 553.6 162.8 552.4 162.7C551.1 162.6 549.9 162.4 548.7 162.2C547.5 162 546.4 161.7 545.5 161.5C544.6 161.2 543.9 161 543.3 160.7L550.7 147.4C551.7 147.7 552.8 147.9 554.1 148C555.4 148.2 556.6 148.3 558 148.3C559.9 148.3 561.8 147.9 563.6 147.3C565.5 146.6 567.1 145.3 568.5 143.3L571.1 139.6L570.8 88.1H591L588.1 120.2L608.5 88.1H628.4Z" fill="#032351" class="f"/>
<path d="M653.3 101L646.2 119.2C644.2 124.5 645.7 127 650.6 127C652.4 127 654 126.9 655.2 126.8C656.5 126.7 657.6 126.5 658.6 126.4L651.9 138.7C651.3 138.9 650.4 139.1 649.5 139.2C648.6 139.4 647.6 139.6 646.5 139.7C645.4 139.8 644.3 140 643.1 140.1C642 140.2 640.9 140.2 639.8 140.2C636.1 140.2 633.2 139.7 630.9 138.9C628.7 138 627.2 136.7 626.4 134.9C625.6 133.1 625.3 130.9 625.7 128.3C626.1 125.7 627 122.6 628.3 119L635.4 100.8H626.3L633.2 87.8H640.6L645.1 75.9L663.7 73.6L658.3 87.7H673.1L666.2 100.7L653.3 101Z" fill="#032351" class="f"/>
<path d="M684.8 119.1C684.3 120.7 684.2 122.1 684.3 123.2C684.4 124.3 684.8 125.2 685.6 125.9C686.4 126.6 687.5 127.1 689 127.4C690.5 127.7 692.4 127.9 694.9 127.9C697.4 127.9 700 127.8 702.8 127.5C705.6 127.2 708.3 126.9 711.2 126.4L704.3 138.3C703.2 138.7 701.8 138.9 700.3 139.2C698.8 139.5 697.1 139.7 695.4 140C693.7 140.3 692 140.4 690.1 140.5C688.3 140.6 686.7 140.7 685.1 140.7C680.4 140.7 676.7 140.2 673.8 139C671 137.8 669.1 136.1 668 133.9C666.9 131.7 666.5 129.1 666.8 126C667.1 122.9 668 119.5 669.4 115.7L670.1 113.7C671.6 110 673.3 106.4 675.3 103.2C677.3 100 679.7 97.1 682.6 94.7C685.4 92.3 688.7 90.4 692.5 89C696.3 87.5 700.6 86.9 705.4 86.9C709.9 86.9 713.5 87.5 716 88.8C718.5 90.1 720.2 91.7 721.1 93.7C722 95.7 722.3 98.1 721.9 100.7C721.5 103.3 720.8 106.1 719.7 108.9L718.2 113C717.2 115.5 716.1 117.2 714.8 118C713.5 118.7 711.5 119.1 708.8 119.1H684.8ZM700.2 99.4C695 99.4 691.1 102.5 688.6 108.7H703.8L704.3 107.2C706.3 102 705 99.4 700.2 99.4Z" fill="#032351" class="f"/>
<path d="M139.2 0C62.3 0 0 62.4 0 139.2C0 216 62.4 278.4 139.2 278.4C216 278.4 278.5 216.1 278.5 139.2C278.5 62.3 216.1 0 139.2 0Z" fill="#0066CC"/>
<path d="M139.2 252.3C201.663 252.3 252.3 201.663 252.3 139.2C252.3 76.7366 201.663 26.1 139.2 26.1C76.7366 26.1 26.1 76.7366 26.1 139.2C26.1 201.663 76.7366 252.3 139.2 252.3Z" fill="#002352"/>
<path d="M174 82.5L178 72.1C178.4 71 177.6 69.9 176.5 69.9H161.6L156.9 82.2H150.3L154.1 72.1C154.5 71 153.7 69.9 152.6 69.9H137.7L133 82.2H86.3C84.2 82.2 82.2 83.4 81.1 85.2L69.5 105.7H85.7H156.6C159.5 105.7 162.3 106.2 165 107.3C170.2 109.4 176.3 114.2 174.7 125C172.2 143.1 153.7 175.1 113.7 175.6L134.4 121.8C135.2 119.6 133.6 117.3 131.2 117.3H103.5L70 199.5C70 199.5 76.7 200.3 87.3 200.3L83.9 208.9H99.3C100.5 208.9 101.6 208.2 102 207L104.9 199.6C107.2 199.4 109.4 199.1 111.8 198.9L108 208.9H123.3C124.5 208.9 125.6 208.2 126 207L130.4 195.7C155.5 190 182.3 177.5 198.4 151.3C230.7 98.5 197.2 84.9 174 82.5Z" fill="white"/>
</svg>
